<?xml version="1.0" encoding="UTF-8"?>
<svg id="_レイヤー_1" data-name="レイヤー 1" xmlns="http://www.w3.org/2000/svg" viewBox="0 0 24 24">
  <path d="M10.47,18.14L4.09,7.31c-.1-.17-.29-.25-.48-.19-.19.05-.31.22-.31.41v10.82c0,.24.19.43.43.43h6.38c.15,0,.29-.08.37-.22.08-.13.07-.3,0-.43Z"/>
  <path d="M20.28,18.78h-6.38c-.15,0-.29-.08-.37-.22-.08-.13-.07-.3,0-.43l6.38-10.82c.1-.17.29-.25.48-.19.19.05.31.22.31.41v10.82c0,.24-.19.43-.43.43ZM14.64,17.93h5.21v-8.83l-5.21,8.83Z"/>
  <path d="M12,22.18c-.08,0-.14-.06-.14-.14V1.97c0-.08.06-.14.14-.14s.14.06.14.14v20.07c0,.08-.06.14-.14.14Z"/>
  <path d="M18.7,6.59l-.86-2.4-.66.78c-3.31-2.3-7.05-2.3-10.36,0l-.65-.78-.87,2.4,2.51-.45-.62-.74c3.08-2.11,6.55-2.11,9.62,0l-.62.73,2.51.45Z"/>
</svg>