<?xml version="1.0" encoding="UTF-8"?>
<svg id="_レイヤー_1" data-name="レイヤー 1" xmlns="http://www.w3.org/2000/svg" viewBox="0 0 24 24">
  <path d="M12,22.18c-.55,0-1-.45-1-1v-3.5c0-.55.45-1,1-1s1,.45,1,1v3.5c0,.55-.45,1-1,1Z"/>
  <path d="M5.51,19.49c-.26,0-.51-.1-.71-.29-.39-.39-.39-1.02,0-1.41l2.48-2.48c.39-.39,1.02-.39,1.41,0s.39,1.02,0,1.41l-2.48,2.48c-.2.2-.45.29-.71.29Z"/>
  <path d="M6.33,13h-3.5c-.55,0-1-.45-1-1s.45-1,1-1h3.5c.55,0,1,.45,1,1s-.45,1-1,1Z"/>
  <path d="M7.99,8.99c-.26,0-.51-.1-.71-.29l-2.48-2.48c-.39-.39-.39-1.02,0-1.41s1.02-.39,1.41,0l2.48,2.48c.39.39.39,1.02,0,1.41-.2.2-.45.29-.71.29Z"/>
  <path d="M12,7.33c-.55,0-1-.45-1-1v-3.5c0-.55.45-1,1-1s1,.45,1,1v3.5c0,.55-.45,1-1,1Z"/>
  <path d="M16.01,8.99c-.26,0-.51-.1-.71-.29-.39-.39-.39-1.02,0-1.41l2.48-2.48c.39-.39,1.02-.39,1.41,0s.39,1.02,0,1.41l-2.48,2.48c-.2.2-.45.29-.71.29Z"/>
  <path d="M21.18,13h-3.5c-.55,0-1-.45-1-1s.45-1,1-1h3.5c.55,0,1,.45,1,1s-.45,1-1,1Z"/>
  <path d="M18.49,19.49c-.26,0-.51-.1-.71-.29l-2.48-2.48c-.39-.39-.39-1.02,0-1.41s1.02-.39,1.41,0l2.48,2.48c.39.39.39,1.02,0,1.41-.2.2-.45.29-.71.29Z"/>
</svg>