<?xml version="1.0" encoding="UTF-8"?>
<svg id="_レイヤー_1" data-name="レイヤー 1" xmlns="http://www.w3.org/2000/svg" viewBox="0 0 24 24">
  <path d="M11.88,21.58c-.07,0-.14-.02-.21-.06-.13-.07-.21-.21-.21-.36v-6.27c0-.23.19-.42.42-.42h10.64c.19,0,.35.13.4.31s-.03.38-.19.47l-10.64,6.27c-.07.04-.14.06-.21.06ZM12.3,15.31v5.12l8.68-5.12h-8.68Z"/>
  <path d="M10.14,14.45L3.87,3.81c-.1-.16-.29-.25-.47-.19-.18.05-.31.22-.31.4v10.64c0,.23.19.42.42.42h6.27c.15,0,.29-.08.36-.21.07-.13.07-.29,0-.42Z"/>
  <path d="M13.68,11.33c-.81-1.55-2.4-2.54-4.16-2.54-.15,0-.28.13-.28.28s.13.28.28.28c1.51,0,2.88.82,3.61,2.12l-.92.23,1.75,1.8.69-2.41-.95.24Z"/>
</svg>